<?xml version="1.0" standalone="no"?>
<!DOCTYPE svg PUBLIC "-//W3C//DTD SVG 20010904//EN"
 "http://www.w3.org/TR/2001/REC-SVG-20010904/DTD/svg10.dtd">
<svg version="1.0" xmlns="http://www.w3.org/2000/svg"
 width="1280.000000pt" height="806.000000pt" viewBox="0 0 1280.000000 806.000000"
 preserveAspectRatio="xMidYMid meet">
<metadata>
Created by potrace 1.15, written by Peter Selinger 2001-2017
</metadata>
<g transform="translate(0.000000,806.000000) scale(0.100000,-0.100000)"
fill="#DEDCA0" stroke="none">
<path d="M6714 8008 c-28 -29 -76 -87 -106 -128 -63 -86 -419 -480 -612 -679
-72 -73 -201 -196 -287 -271 -176 -156 -249 -233 -298 -314 -66 -111 -89 -263
-55 -376 9 -30 40 -103 70 -162 30 -59 77 -165 105 -235 107 -271 174 -363
413 -577 242 -216 295 -254 489 -352 196 -99 253 -136 382 -245 249 -210 439
-333 677 -439 231 -103 444 -172 545 -178 78 -4 83 -3 109 23 25 26 26 30 21
100 -3 40 -10 82 -16 92 -5 11 -39 37 -75 58 -37 21 -66 42 -66 46 0 15 -83
56 -188 94 -62 23 -125 54 -155 77 -29 21 -79 52 -112 67 -295 140 -287 135
-365 218 -41 43 -125 147 -185 232 -201 281 -182 263 -537 491 -223 143 -297
227 -412 471 -42 89 -66 126 -105 164 -28 27 -56 64 -62 83 -17 53 -5 282 18
357 71 220 232 407 510 591 171 113 208 156 290 324 31 63 65 128 76 144 11
15 63 57 116 92 53 35 126 92 164 127 63 60 66 65 50 80 -43 38 -197 77 -305
77 -40 0 -49 -5 -94 -52z"/>
<path d="M6465 7938 c-231 -51 -520 -96 -805 -125 -134 -14 -262 -18 -551 -18
l-377 0 -6 -44 c-9 -65 -7 -220 3 -265 5 -21 23 -53 39 -70 16 -17 44 -59 61
-94 16 -34 50 -88 74 -120 24 -31 57 -78 75 -103 47 -70 139 -315 184 -488 22
-86 43 -160 47 -164 5 -5 18 18 30 50 31 81 89 163 216 303 109 121 147 156
345 327 127 109 210 196 310 324 41 53 143 170 226 260 182 198 218 239 213
242 -2 2 -40 -5 -84 -15z"/>
<path d="M7182 7905 c-16 -23 -78 -80 -135 -124 -110 -85 -145 -125 -217 -251
-24 -41 -59 -95 -77 -120 -51 -69 -240 -256 -419 -416 -88 -79 -170 -161 -183
-182 -126 -208 -161 -289 -161 -372 0 -112 54 -223 197 -407 46 -58 83 -109
83 -114 0 -4 9 -33 20 -63 22 -56 38 -71 283 -250 70 -51 157 -31 203 47 14
23 49 82 78 132 45 76 70 105 167 190 105 92 118 108 162 193 34 66 52 115 62
171 7 43 22 104 32 137 15 50 18 87 15 247 -2 150 1 205 15 275 15 73 17 129
15 357 -2 210 1 289 13 355 30 168 30 166 2 185 -14 9 -48 25 -75 35 l-49 19
-31 -44z"/>
<path d="M2975 7935 c-11 -2 -50 -7 -87 -10 l-68 -7 0 -76 c0 -42 7 -122 15
-177 8 -56 15 -176 15 -273 0 -199 36 -450 72 -509 49 -81 170 -147 343 -189
300 -72 327 -84 390 -180 21 -32 61 -86 90 -119 92 -109 117 -145 148 -218 36
-86 53 -114 79 -128 28 -15 52 -3 76 40 32 57 37 117 17 201 -24 97 -16 262
20 430 34 158 36 270 7 400 -56 249 -101 540 -102 653 0 37 -1 67 -2 67 -2 0
-79 14 -173 30 -332 59 -354 62 -590 65 -126 2 -239 2 -250 0z"/>
<path d="M2675 7885 c-5 -2 -36 -9 -68 -15 l-59 -12 7 -46 c3 -26 20 -105 36
-177 40 -170 44 -255 25 -529 -9 -127 -16 -266 -16 -311 l0 -81 108 -110 c93
-96 122 -118 222 -173 159 -89 191 -112 305 -221 55 -52 120 -111 145 -130 25
-19 77 -62 116 -96 174 -150 271 -195 648 -299 152 -42 235 -77 269 -113 13
-15 43 -58 65 -97 37 -64 102 -141 102 -120 0 4 -9 78 -19 164 -16 126 -21
251 -26 647 -6 532 -3 614 45 1014 26 221 39 351 54 551 l5 67 -187 7 c-103 4
-223 10 -267 15 -44 4 -83 4 -88 0 -15 -13 -25 -211 -16 -308 11 -118 41 -228
106 -392 62 -153 77 -215 77 -305 -1 -79 -17 -123 -83 -225 -57 -87 -75 -154
-75 -270 1 -80 5 -106 28 -165 68 -173 66 -180 -55 -179 -111 0 -183 23 -242
75 -38 33 -62 70 -119 185 -40 80 -86 162 -104 183 -42 48 -136 91 -286 130
-64 17 -140 42 -168 56 -64 32 -233 147 -279 189 -53 49 -61 80 -72 279 -26
498 -30 579 -40 660 -15 138 -36 172 -94 152z"/>
<path d="M2361 7788 c-279 -110 -567 -290 -836 -524 -96 -83 -362 -348 -402
-401 l-25 -32 76 -103 c130 -175 155 -245 156 -443 0 -56 10 -115 31 -195 58
-220 51 -381 -21 -484 -42 -62 -253 -266 -317 -308 -70 -46 -55 -57 50 -39
200 34 386 101 622 221 287 147 422 245 522 378 158 209 229 436 253 809 31
482 41 829 30 973 -12 150 -18 190 -29 190 -3 0 -53 -19 -110 -42z"/>
<path d="M7457 7716 c-4 -63 -21 -214 -39 -337 -43 -309 -44 -489 -4 -714 36
-202 33 -268 -18 -370 -44 -88 -104 -158 -279 -326 -252 -241 -305 -356 -243
-532 62 -174 266 -433 434 -548 42 -29 129 -92 193 -140 126 -93 241 -167 401
-256 57 -32 133 -79 169 -105 36 -26 69 -48 73 -48 12 0 -3 131 -18 160 -7 14
-29 51 -48 83 -38 61 -50 120 -63 297 -9 131 -24 222 -60 380 -24 100 -38 193
-45 300 -8 110 -23 206 -51 331 -30 134 -39 198 -39 267 0 51 -9 136 -20 194
-34 170 -36 248 -9 358 38 161 34 202 -62 519 -51 168 -93 365 -104 481 l-6
65 -73 28 c-40 15 -75 27 -78 27 -3 0 -8 -51 -11 -114z"/>
<path d="M7707 7718 c3 -18 28 -98 55 -177 33 -98 58 -199 78 -315 48 -273 60
-304 292 -746 37 -69 96 -206 133 -305 79 -209 96 -247 192 -415 46 -79 83
-160 102 -220 16 -52 44 -140 61 -195 38 -119 80 -211 113 -247 25 -27 46 -34
177 -63 172 -38 259 -110 380 -311 91 -152 170 -257 262 -347 91 -88 131 -111
278 -157 204 -63 281 -119 379 -279 69 -112 147 -191 228 -229 51 -24 70 -27
153 -26 154 2 296 47 429 136 55 37 131 108 131 123 0 5 -28 28 -61 50 -78 52
-222 202 -279 292 l-45 71 -70 0 c-86 0 -161 26 -242 86 -74 54 -187 167 -227
227 -17 26 -60 79 -95 119 -114 132 -169 232 -226 415 -54 173 -117 290 -245
451 -74 93 -76 97 -143 275 -65 172 -103 250 -150 305 -41 47 -135 100 -194
110 -56 9 -163 -11 -248 -46 -98 -41 -163 -53 -223 -42 -66 12 -96 -1 -155
-69 l-47 -54 5 55 c12 109 25 148 61 179 40 36 80 48 198 62 83 10 277 0 368
-18 15 -3 28 -1 28 4 0 17 -143 148 -191 176 -25 15 -78 38 -116 51 -87 30
-111 42 -146 75 -39 35 -52 72 -72 188 -27 164 -36 184 -123 261 -141 124
-154 140 -241 310 -46 89 -89 166 -95 171 -7 6 -59 17 -116 26 -96 16 -300 58
-342 71 -15 4 -17 1 -11 -28z m1486 -1831 c74 -31 150 -155 182 -295 18 -79
55 -126 125 -157 22 -10 40 -21 40 -25 0 -13 -123 -30 -217 -30 -177 0 -340
45 -413 115 -25 24 -72 56 -105 73 -68 34 -185 117 -185 132 0 5 18 14 40 20
35 9 253 101 380 159 52 24 107 27 153 8z"/>
<path d="M8952 5664 c-12 -8 -22 -25 -22 -37 0 -20 4 -22 43 -19 40 3 46 0 76
-34 l33 -37 57 11 c32 7 70 12 85 12 24 0 26 3 21 23 -11 36 -44 65 -93 81
-60 21 -170 21 -200 0z"/>
<path d="M8335 7589 c43 -69 137 -194 178 -237 29 -30 114 -101 189 -158 157
-120 178 -142 308 -324 52 -72 121 -156 152 -186 32 -29 125 -92 206 -140 260
-154 325 -254 401 -609 47 -225 90 -329 187 -455 77 -101 100 -156 119 -280
30 -192 70 -284 212 -488 124 -179 259 -282 366 -282 79 0 77 6 -71 218 -56
79 -119 178 -140 220 -71 137 -162 379 -223 595 -45 155 -97 303 -201 561 -77
193 -185 468 -240 611 -55 143 -110 278 -123 301 -90 154 -247 296 -455 411
-124 69 -258 109 -520 158 -115 21 -265 62 -334 90 -15 7 -17 5 -11 -6z"/>
<path d="M4691 7278 c-19 -61 -21 -103 -26 -628 -3 -289 -9 -619 -15 -733 -15
-322 6 -506 84 -739 14 -42 26 -88 26 -103 0 -14 11 -81 25 -147 39 -188 40
-179 -69 -463 -60 -155 -141 -318 -217 -435 -80 -124 -95 -155 -103 -220 -4
-30 -25 -120 -46 -200 -47 -171 -64 -278 -56 -337 15 -111 73 -219 207 -384
l80 -99 127 131 c442 459 855 609 1331 483 52 -13 95 -23 96 -22 1 2 30 59 64
128 52 106 65 144 86 248 29 151 52 200 130 278 50 52 71 65 130 84 62 20 79
32 146 99 131 132 156 216 92 319 -47 76 -221 224 -326 278 -150 76 -223 122
-372 228 -77 56 -176 120 -220 143 -149 77 -186 128 -290 393 -36 92 -82 193
-102 226 -20 32 -58 97 -85 144 -51 88 -103 166 -219 330 -135 193 -173 291
-219 572 -31 195 -51 262 -100 332 -25 37 -126 126 -143 126 -3 0 -10 -15 -16
-32z m345 -1689 c34 -79 85 -207 115 -283 61 -159 123 -260 266 -432 122 -147
189 -255 259 -421 50 -119 65 -145 110 -190 56 -54 171 -118 232 -128 20 -4
49 -11 65 -17 29 -11 87 -71 87 -90 0 -6 -13 -38 -29 -72 -15 -33 -37 -83 -47
-111 -15 -39 -29 -55 -60 -72 -43 -24 -144 -42 -234 -43 -30 0 -77 -7 -105
-15 -27 -9 -78 -20 -112 -25 -35 -6 -99 -22 -141 -35 -214 -69 -395 -51 -489
47 -42 44 -56 83 -48 138 3 25 42 151 85 280 99 297 110 351 117 575 6 228 -8
336 -62 456 -21 46 -50 129 -65 184 -15 55 -37 133 -50 173 -27 88 -25 179 5
212 10 11 23 19 29 17 6 -2 38 -68 72 -148z"/>
<path d="M5191 4932 c-33 -109 -36 -173 -16 -326 9 -75 15 -171 13 -217 -3
-74 -11 -100 -57 -214 -62 -150 -76 -240 -48 -308 l16 -37 65 0 c37 0 106 7
155 15 72 13 104 14 177 4 157 -19 245 -22 313 -10 112 20 180 73 162 125 -11
28 -100 100 -254 203 -231 154 -264 190 -287 308 -6 35 -36 111 -71 180 -32
66 -77 171 -98 233 -22 63 -41 115 -43 117 -2 2 -14 -31 -27 -73z"/>
<path d="M1025 6746 c-6 -7 -37 -49 -71 -92 -187 -241 -401 -603 -512 -864
-125 -295 -141 -388 -123 -730 12 -249 25 -364 70 -655 62 -394 67 -634 16
-795 -34 -105 -106 -252 -215 -435 -213 -357 -229 -447 -125 -725 25 -67 50
-154 56 -194 16 -105 28 -146 44 -146 33 0 70 67 95 170 20 80 16 238 -9 354
-12 54 -24 129 -27 166 -12 124 33 278 169 577 74 162 124 297 142 384 15 69
17 304 11 1009 -1 128 9 167 74 307 55 117 106 166 324 311 277 184 343 259
354 404 6 81 -8 156 -54 300 -19 59 -44 154 -54 210 -11 58 -44 168 -75 250
-31 81 -58 161 -61 178 -7 33 -14 37 -29 16z"/>
<path d="M7872 6578 c-18 -18 -14 -52 10 -83 20 -26 22 -42 28 -289 7 -237 11
-275 39 -416 18 -85 55 -225 83 -310 57 -175 67 -253 68 -575 0 -194 10 -269
42 -334 20 -40 27 -46 58 -49 133 -10 249 -73 422 -230 64 -58 112 -82 164
-82 30 0 41 17 51 75 6 33 14 51 25 53 9 2 43 -27 84 -73 110 -122 116 -114
34 41 -164 313 -207 402 -214 446 -9 58 -64 172 -151 313 -109 176 -136 240
-144 343 -8 96 -6 91 -102 218 -36 48 -50 78 -63 135 -13 60 -29 92 -81 169
-58 85 -67 105 -86 189 -11 52 -30 115 -43 140 -76 153 -157 308 -166 319 -14
15 -42 16 -58 0z"/>
<path d="M2590 6498 c0 -7 -7 -70 -15 -139 -64 -552 -309 -883 -750 -1017
-142 -44 -413 -92 -514 -92 -71 0 -13 -17 98 -30 187 -20 335 -55 426 -100 44
-22 140 -85 213 -140 74 -55 145 -103 159 -106 19 -5 32 1 63 31 l38 37 128
-43 c231 -75 358 -153 575 -353 151 -138 252 -257 297 -350 28 -57 98 -294
128 -431 12 -57 21 -131 44 -380 6 -60 15 -114 20 -119 15 -15 388 -13 485 2
44 8 119 22 167 33 l87 20 11 52 c7 29 16 144 20 257 11 270 14 279 141 435
141 174 293 465 334 641 18 75 7 124 -58 264 -49 105 -87 217 -87 259 0 17
-11 38 -31 57 -17 16 -62 66 -100 111 -114 133 -176 161 -402 182 -351 33
-482 95 -761 360 -223 212 -432 384 -606 500 -112 75 -110 74 -110 59z"/>
<path d="M11552 5278 c-23 -12 -77 -61 -119 -108 -76 -86 -118 -156 -107 -183
8 -22 50 -37 105 -37 119 0 260 -24 392 -67 13 -4 17 0 17 20 0 14 9 44 20 68
24 53 25 88 5 153 -8 27 -15 64 -15 83 0 32 -4 36 -57 60 -38 17 -82 27 -128
30 -60 4 -76 1 -113 -19z"/>
<path d="M11953 4993 l18 -207 43 -45 c23 -26 47 -53 52 -61 5 -9 29 -24 53
-35 86 -38 200 -176 220 -267 6 -24 14 -74 20 -113 9 -65 13 -73 56 -112 57
-54 61 -89 12 -138 -42 -42 -90 -55 -203 -55 l-92 0 -12 -30 c-7 -16 -31 -50
-55 -75 l-42 -46 26 -28 c14 -16 38 -47 54 -70 33 -51 44 -55 96 -41 30 8 61
30 114 83 94 94 170 132 292 147 50 7 113 15 140 18 l50 7 -1 135 c-2 118 -15
245 -28 258 -3 2 -28 -3 -58 -11 -130 -37 -183 -29 -231 34 -37 50 -40 72 -27
166 l13 86 -72 66 c-86 79 -94 100 -85 233 l7 97 -84 54 c-71 46 -276 157
-290 157 -3 0 3 -93 14 -207z"/>
<path d="M933 5163 c-8 -6 24 -27 95 -62 206 -102 237 -132 280 -274 21 -71
26 -115 35 -332 14 -353 14 -359 -33 -508 -75 -239 -53 -285 179 -374 130 -49
162 -65 263 -134 106 -72 265 -153 503 -254 304 -130 426 -199 615 -354 242
-198 303 -281 367 -505 38 -131 73 -207 108 -230 l22 -14 6 271 c7 296 16 427
49 672 24 187 24 217 -2 424 -34 267 -81 419 -172 558 -22 35 -58 111 -79 170
-43 118 -75 166 -135 201 -69 39 -216 80 -420 116 -227 40 -324 65 -397 102
-52 27 -129 100 -277 263 -70 79 -96 99 -155 127 -74 35 -251 83 -425 115
-113 21 -407 36 -427 22z"/>
<path d="M764 5071 c-64 -29 -101 -90 -133 -215 -8 -29 -7 -43 4 -60 57 -91
117 -450 118 -716 0 -177 -6 -219 -73 -501 -79 -328 -83 -363 -84 -629 -1
-137 7 -355 19 -523 16 -244 17 -306 7 -416 -17 -195 -71 -346 -211 -595 -34
-61 -57 -114 -53 -118 12 -12 94 7 143 33 56 28 117 86 140 132 29 56 55 186
78 399 12 102 32 240 45 305 39 187 55 316 61 488 4 88 11 196 16 240 24 191
112 452 220 648 78 140 98 196 149 412 46 197 46 203 37 537 -7 214 -19 276
-75 381 -45 85 -110 154 -177 187 -68 33 -173 39 -231 11z"/>
<path d="M8826 4947 c-21 -21 -26 -36 -26 -77 0 -74 25 -135 145 -351 247
-445 345 -567 589 -731 159 -106 343 -184 527 -222 182 -37 473 -44 485 -11
11 28 -17 51 -113 95 -181 82 -362 190 -518 308 -257 195 -551 504 -735 773
-96 140 -199 224 -291 236 -31 5 -42 1 -63 -20z"/>
<path d="M12360 4876 c0 -88 15 -123 75 -181 63 -60 92 -135 81 -215 -6 -44
-4 -50 24 -73 46 -39 137 -53 207 -32 26 8 -51 202 -123 311 -21 32 -62 83
-91 114 -50 54 -152 140 -166 140 -4 0 -7 -29 -7 -64z"/>
<path d="M12135 4553 c64 -164 81 -317 51 -446 -9 -38 -16 -71 -16 -74 0 -10
117 5 146 19 40 18 41 52 5 133 -27 58 -30 74 -24 125 5 53 3 63 -28 116 -49
86 -159 189 -134 127z"/>
<path d="M6984 4351 c-56 -14 -128 -61 -214 -137 -47 -42 -115 -91 -152 -110
-128 -64 -162 -114 -258 -369 -61 -161 -67 -116 44 -370 36 -82 70 -163 76
-179 l10 -28 77 8 c79 9 183 10 698 4 242 -3 662 12 701 24 16 6 0 143 -43
361 -28 146 -37 219 -39 315 l-2 125 -54 35 c-68 45 -174 87 -349 139 -136 41
-189 65 -314 139 -73 43 -128 56 -181 43z"/>
<path d="M11255 3824 c-44 -37 -88 -57 -200 -94 -128 -42 -217 -85 -291 -142
-148 -113 -187 -127 -401 -138 -90 -5 -168 -12 -174 -16 -14 -8 118 -87 266
-158 338 -163 746 -266 1070 -270 l130 -1 3 45 c2 39 -5 58 -48 133 -63 109
-100 218 -100 291 0 58 20 167 43 235 l15 41 -72 21 c-39 12 -97 34 -128 50
-69 35 -75 35 -113 3z"/>
<path d="M12570 3801 c-97 -32 -130 -71 -130 -157 0 -34 -4 -66 -10 -69 -5 -3
-33 -9 -62 -12 -33 -3 -88 -23 -143 -50 -125 -61 -153 -52 -200 65 -16 39 -45
87 -73 117 -43 47 -49 51 -72 42 -14 -5 -74 -13 -135 -16 l-110 -6 -24 -50
c-17 -35 -26 -74 -29 -126 -4 -66 -1 -84 20 -130 14 -30 46 -79 72 -109 26
-30 49 -65 53 -78 3 -12 0 -55 -5 -95 -15 -96 -9 -117 32 -117 54 0 247 38
331 65 264 85 471 254 592 482 46 87 99 230 89 240 -10 10 -168 13 -196 4z"/>
<path d="M1188 3527 c-26 -62 -57 -139 -68 -172 -38 -112 -161 -567 -176 -651
-8 -45 -49 -219 -91 -386 l-76 -303 -8 -210 c-12 -342 -45 -428 -208 -544 -54
-38 -156 -71 -220 -71 -42 0 -49 -3 -60 -27 -21 -47 -24 -161 -7 -283 27 -194
20 -246 -60 -433 -20 -45 -38 -106 -41 -134 -6 -51 -4 -54 34 -92 52 -52 111
-68 298 -81 276 -18 819 -6 919 21 22 6 55 26 73 44 27 27 33 41 33 77 0 64
-46 151 -129 241 -128 139 -139 161 -156 318 -6 53 -8 56 -43 69 -92 33 -191
175 -212 306 -12 75 2 214 40 379 17 72 42 182 56 245 16 70 27 148 28 201 l1
85 -63 125 c-102 201 -98 253 57 646 135 344 144 376 145 565 1 93 -3 161 -9
167 -7 6 -26 -29 -57 -102z"/>
<path d="M1330 3580 c0 -16 12 -64 26 -106 39 -113 33 -150 -54 -328 -77 -157
-86 -186 -97 -311 -4 -44 -18 -114 -32 -155 -21 -63 -24 -87 -19 -150 13 -164
25 -257 37 -289 17 -47 5 -271 -20 -386 -11 -49 -34 -142 -52 -205 -48 -175
-43 -351 12 -462 19 -37 62 -78 83 -78 8 0 16 46 23 132 20 224 100 609 158
760 44 116 143 326 173 370 44 63 169 181 315 297 l128 103 -17 26 c-9 14 -53
73 -99 131 -45 58 -106 146 -135 195 -71 116 -119 169 -246 266 -94 72 -108
88 -139 150 -19 39 -37 70 -40 70 -3 0 -5 -13 -5 -30z"/>
<path d="M1590 3424 c0 -13 173 -217 265 -313 257 -267 457 -436 643 -543 48
-27 98 -60 112 -73 14 -12 59 -46 100 -75 82 -57 262 -235 286 -282 10 -20 18
-78 24 -167 17 -292 130 -536 301 -650 57 -38 133 -70 144 -60 2 3 -9 39 -25
80 -50 129 -71 262 -71 441 0 87 2 162 5 166 3 5 -15 29 -40 53 -53 52 -103
130 -209 329 -156 292 -204 345 -370 409 -134 51 -205 90 -314 172 -46 34
-165 114 -265 179 -100 64 -219 145 -266 179 -95 71 -129 89 -238 131 -84 33
-82 32 -82 24z"/>
<path d="M5860 3359 c-36 -5 -108 -17 -160 -28 -52 -12 -149 -30 -215 -41
-263 -43 -298 -63 -531 -295 -100 -99 -208 -215 -242 -257 l-60 -77 24 -59
c13 -33 29 -94 36 -136 12 -76 12 -76 43 -76 57 0 135 -77 156 -154 6 -22 15
-106 19 -186 8 -143 9 -149 52 -246 40 -92 43 -105 42 -184 -1 -168 -62 -316
-181 -441 -70 -73 -86 -84 -245 -165 -108 -55 -175 -95 -186 -112 -9 -14 -18
-52 -20 -89 -4 -56 -1 -71 27 -126 28 -56 70 -109 129 -161 22 -19 22 -19 126
81 122 118 176 148 302 168 117 19 184 35 184 45 0 4 -7 74 -16 156 -29 270
-8 533 56 693 11 30 50 105 86 167 35 62 76 139 91 170 26 57 26 58 17 203
-22 364 -8 480 68 566 66 74 139 86 386 62 21 -2 27 8 57 88 46 127 84 208
149 315 31 51 55 94 54 95 -7 5 -160 35 -171 34 -7 -1 -41 -5 -77 -10z"/>
<path d="M7625 3067 c-73 -41 -112 -128 -102 -226 4 -36 21 -85 54 -149 44
-88 48 -102 48 -166 0 -40 -10 -113 -23 -166 -25 -103 -26 -92 17 -245 13 -46
20 -103 20 -165 1 -147 34 -244 109 -327 61 -66 177 -98 257 -71 47 16 46 9
21 198 -12 93 -19 271 -27 700 -6 316 -14 579 -19 583 -10 11 -236 57 -280 57
-19 0 -53 -10 -75 -23z"/>
<path d="M6530 3074 c0 -2 10 -24 22 -47 11 -23 45 -98 73 -167 29 -69 89
-203 134 -298 147 -312 173 -394 225 -722 48 -297 77 -464 82 -469 8 -9 358
114 406 143 89 53 93 65 93 234 0 88 6 169 14 203 13 56 13 56 -23 137 -20 45
-42 106 -48 135 -10 49 -9 60 17 132 44 119 40 158 -23 278 l-52 98 0 97 c0
151 -5 162 -99 206 -104 49 -163 53 -425 31 -204 -17 -317 -16 -370 5 -14 5
-26 7 -26 4z"/>
<path d="M5637 2719 c-93 -22 -158 -77 -178 -151 -13 -48 -4 -103 42 -267 16
-58 29 -115 29 -127 0 -45 -33 -120 -112 -256 -91 -157 -132 -253 -183 -428
-57 -197 -65 -299 -34 -425 19 -75 52 -175 58 -175 3 0 51 41 106 91 55 51
124 112 153 137 120 103 158 233 192 668 26 321 42 449 86 684 20 102 38 199
41 216 5 29 3 31 -33 37 -51 9 -120 7 -167 -4z"/>
<path d="M2554 2394 c31 -79 26 -559 -9 -938 -23 -249 -9 -331 75 -461 52 -79
71 -135 75 -220 l4 -70 48 -13 c31 -8 135 -14 288 -16 l240 -4 55 58 c30 31
82 76 115 100 70 50 119 94 145 131 19 25 19 26 -5 60 -13 20 -39 66 -59 103
l-37 69 -64 2 c-105 4 -221 75 -321 196 -57 69 -80 119 -100 216 -9 43 -21 87
-27 98 -6 11 -14 52 -17 90 -7 78 -74 305 -111 376 -28 53 -174 194 -222 214
-68 27 -81 29 -73 9z"/>
<path d="M4734 2029 c4 -140 8 -310 8 -379 2 -214 3 -214 -312 -208 l-226 4 2
-226 c2 -234 12 -306 44 -335 27 -25 50 -15 85 35 22 32 53 57 106 86 260 146
367 228 416 320 49 92 67 173 59 269 -4 44 -10 163 -14 265 -7 181 -8 186 -40
253 -35 76 -83 141 -114 158 -20 11 -20 10 -14 -242z"/>
<path d="M7625 1538 c-11 -6 -47 -33 -79 -60 -78 -65 -92 -71 -232 -108 -133
-35 -230 -77 -228 -100 1 -8 30 -116 65 -240 56 -198 63 -236 64 -315 0 -78
-4 -98 -27 -149 -16 -32 -28 -60 -28 -62 0 -2 15 -6 34 -9 24 -5 62 2 132 25
127 41 145 36 257 -66 142 -130 177 -134 286 -30 97 92 105 96 187 96 39 0 85
5 102 11 l31 10 -39 39 c-21 21 -48 64 -61 96 -23 57 -24 70 -27 402 -4 392
10 349 -118 381 -45 11 -111 36 -148 55 -71 38 -132 46 -171 24z"/>
<path d="M3947 1469 c-50 -29 -87 -198 -87 -396 0 -171 14 -248 72 -393 92
-232 184 -388 257 -437 67 -45 110 -27 215 91 l69 77 -17 57 c-25 78 -62 156
-93 193 -14 16 -67 61 -118 98 -149 111 -160 147 -130 401 15 123 16 158 6
215 -18 102 -21 105 -94 105 -34 0 -70 -5 -80 -11z"/>
<path d="M3484 751 c-35 -28 -60 -59 -78 -96 -14 -31 -47 -78 -72 -105 -50
-53 -150 -110 -194 -110 -40 0 -102 24 -164 64 -110 70 -157 90 -218 90 -85 1
-92 -10 -92 -136 -1 -118 14 -157 74 -192 52 -31 196 -33 416 -6 202 24 268
37 404 81 150 49 213 87 246 151 31 60 2 182 -60 254 -31 36 -33 36 -121 41
l-90 5 -51 -41z"/>
<path d="M7095 385 c-68 -152 -53 -270 38 -316 42 -22 108 -31 397 -55 165
-13 236 -14 455 -4 280 11 315 15 358 37 47 24 67 50 67 89 0 36 -48 168 -76
212 -25 38 -135 84 -212 90 -109 7 -144 -8 -242 -103 -47 -45 -95 -88 -107
-94 -55 -28 -133 5 -197 83 -20 25 -58 58 -84 73 -45 27 -52 28 -192 28 -80 0
-153 4 -163 9 -14 7 -21 -1 -42 -49z"/>
</g>
</svg>
